<svg version="1.1" xmlns="http://www.w3.org/2000/svg" xmlns:xlink="http://www.w3.org/1999/xlink" width="1200" height="901"><defs><clipPath id="GlUOgsvmSaGl"><path fill="none" stroke="none" d=" M 0 0 L 1200 0 L 1200 901 L 0 901 L 0 0 Z"/></clipPath></defs><g transform="scale(1,1)" clip-path="url(#GlUOgsvmSaGl)"><g><rect fill="rgb(255,255,255)" stroke="none" x="0" y="0" width="1200" height="901" fill-opacity="1"/><path fill="none" stroke="rgb(192,192,192)" paint-order="fill stroke markers" d=" M 10.5 0.5 L 10.5 901.5 M 10.5 0.5 L 10.5 901.5 M 94.5 0.5 L 94.5 901.5 M 261.5 0.5 L 261.5 901.5 M 345.5 0.5 L 345.5 901.5 M 429.5 0.5 L 429.5 901.5 M 513.5 0.5 L 513.5 901.5 M 596.5 0.5 L 596.5 901.5 M 680.5 0.5 L 680.5 901.5 M 764.5 0.5 L 764.5 901.5 M 848.5 0.5 L 848.5 901.5 M 932.5 0.5 L 932.5 901.5 M 1015.5 0.5 L 1015.5 901.5 M 1099.5 0.5 L 1099.5 901.5 M 1183.5 0.5 L 1183.5 901.5" stroke-opacity="1" stroke-linecap="round" stroke-linejoin="round" stroke-miterlimit="10"/><path fill="none" stroke="rgb(192,192,192)" paint-order="fill stroke markers" d=" M 27.5 0.5 L 27.5 901.5 M 43.5 0.5 L 43.5 901.5 M 60.5 0.5 L 60.5 901.5 M 77.5 0.5 L 77.5 901.5 M 110.5 0.5 L 110.5 901.5 M 127.5 0.5 L 127.5 901.5 M 144.5 0.5 L 144.5 901.5 M 161.5 0.5 L 161.5 901.5 M 194.5 0.5 L 194.5 901.5 M 211.5 0.5 L 211.5 901.5 M 228.5 0.5 L 228.5 901.5 M 244.5 0.5 L 244.5 901.5 M 278.5 0.5 L 278.5 901.5 M 295.5 0.5 L 295.5 901.5 M 312.5 0.5 L 312.5 901.5 M 328.5 0.5 L 328.5 901.5 M 362.5 0.5 L 362.5 901.5 M 379.5 0.5 L 379.5 901.5 M 395.5 0.5 L 395.5 901.5 M 412.5 0.5 L 412.5 901.5 M 446.5 0.5 L 446.5 901.5 M 462.5 0.5 L 462.5 901.5 M 479.5 0.5 L 479.5 901.5 M 496.5 0.5 L 496.5 901.5 M 529.5 0.5 L 529.5 901.5 M 546.5 0.5 L 546.5 901.5 M 563.5 0.5 L 563.5 901.5 M 580.5 0.5 L 580.5 901.5 M 613.5 0.5 L 613.5 901.5 M 630.5 0.5 L 630.5 901.5 M 647.5 0.5 L 647.5 901.5 M 663.5 0.5 L 663.5 901.5 M 697.5 0.5 L 697.5 901.5 M 714.5 0.5 L 714.5 901.5 M 730.5 0.5 L 730.5 901.5 M 747.5 0.5 L 747.5 901.5 M 781.5 0.5 L 781.5 901.5 M 798.5 0.5 L 798.5 901.5 M 814.5 0.5 L 814.5 901.5 M 831.5 0.5 L 831.5 901.5 M 865.5 0.5 L 865.5 901.5 M 881.5 0.5 L 881.5 901.5 M 898.5 0.5 L 898.5 901.5 M 915.5 0.5 L 915.5 901.5 M 948.5 0.5 L 948.5 901.5 M 965.5 0.5 L 965.5 901.5 M 982.5 0.5 L 982.5 901.5 M 999.5 0.5 L 999.5 901.5 M 1032.5 0.5 L 1032.5 901.5 M 1049.5 0.5 L 1049.5 901.5 M 1066.5 0.5 L 1066.5 901.5 M 1082.5 0.5 L 1082.5 901.5 M 1116.5 0.5 L 1116.5 901.5 M 1133.5 0.5 L 1133.5 901.5 M 1149.5 0.5 L 1149.5 901.5 M 1166.5 0.5 L 1166.5 901.5" stroke-opacity="0.23529411764705882" stroke-linecap="round" stroke-linejoin="round" stroke-miterlimit="10"/><path fill="none" stroke="rgb(192,192,192)" paint-order="fill stroke markers" d=" M 0.5 48.5 L 1200.5 48.5 M 0.5 48.5 L 1200.5 48.5 M 0.5 132.5 L 1200.5 132.5 M 0.5 216.5 L 1200.5 216.5 M 0.5 300.5 L 1200.5 300.5 M 0.5 467.5 L 1200.5 467.5 M 0.5 551.5 L 1200.5 551.5 M 0.5 635.5 L 1200.5 635.5 M 0.5 719.5 L 1200.5 719.5 M 0.5 803.5 L 1200.5 803.5 M 0.5 886.5 L 1200.5 886.5" stroke-opacity="1" stroke-linecap="round" stroke-linejoin="round" stroke-miterlimit="10"/><path fill="none" stroke="rgb(192,192,192)" paint-order="fill stroke markers" d=" M 0.5 15.5 L 1200.5 15.5 M 0.5 15.5 L 1200.5 15.5 M 0.5 32.5 L 1200.5 32.5 M 0.5 65.5 L 1200.5 65.5 M 0.5 82.5 L 1200.5 82.5 M 0.5 99.5 L 1200.5 99.5 M 0.5 115.5 L 1200.5 115.5 M 0.5 149.5 L 1200.5 149.5 M 0.5 166.5 L 1200.5 166.5 M 0.5 183.5 L 1200.5 183.5 M 0.5 199.5 L 1200.5 199.5 M 0.5 233.5 L 1200.5 233.5 M 0.5 250.5 L 1200.5 250.5 M 0.5 266.5 L 1200.5 266.5 M 0.5 283.5 L 1200.5 283.5 M 0.5 317.5 L 1200.5 317.5 M 0.5 333.5 L 1200.5 333.5 M 0.5 350.5 L 1200.5 350.5 M 0.5 367.5 L 1200.5 367.5 M 0.5 400.5 L 1200.5 400.5 M 0.5 417.5 L 1200.5 417.5 M 0.5 434.5 L 1200.5 434.5 M 0.5 451.5 L 1200.5 451.5 M 0.5 484.5 L 1200.5 484.5 M 0.5 501.5 L 1200.5 501.5 M 0.5 518.5 L 1200.5 518.5 M 0.5 534.5 L 1200.5 534.5 M 0.5 568.5 L 1200.5 568.5 M 0.5 585.5 L 1200.5 585.5 M 0.5 602.5 L 1200.5 602.5 M 0.5 618.5 L 1200.5 618.5 M 0.5 652.5 L 1200.5 652.5 M 0.5 669.5 L 1200.5 669.5 M 0.5 685.5 L 1200.5 685.5 M 0.5 702.5 L 1200.5 702.5 M 0.5 736.5 L 1200.5 736.5 M 0.5 752.5 L 1200.5 752.5 M 0.5 769.5 L 1200.5 769.5 M 0.5 786.5 L 1200.5 786.5 M 0.5 819.5 L 1200.5 819.5 M 0.5 836.5 L 1200.5 836.5 M 0.5 853.5 L 1200.5 853.5 M 0.5 870.5 L 1200.5 870.5" stroke-opacity="0.23529411764705882" stroke-linecap="round" stroke-linejoin="round" stroke-miterlimit="10"/><path fill="none" stroke="rgb(0,0,0)" paint-order="fill stroke markers" d=" M 177.5 2.5 L 177.5 901.5" stroke-opacity="1" stroke-miterlimit="10"/><path fill="none" stroke="rgb(0,0,0)" paint-order="fill stroke markers" d=" M 177.5 1.5 L 173.5 5.5" stroke-opacity="1" stroke-miterlimit="10"/><path fill="none" stroke="rgb(0,0,0)" paint-order="fill stroke markers" d=" M 177.5 1.5 L 181.5 5.5" stroke-opacity="1" stroke-miterlimit="10"/><path fill="none" stroke="rgb(0,0,0)" paint-order="fill stroke markers" d=" M 0.5 384.5 L 1198.5 384.5" stroke-opacity="1" stroke-miterlimit="10"/><path fill="none" stroke="rgb(0,0,0)" paint-order="fill stroke markers" d=" M 1199.5 384.5 L 1195.5 380.5" stroke-opacity="1" stroke-miterlimit="10"/><path fill="none" stroke="rgb(0,0,0)" paint-order="fill stroke markers" d=" M 1199.5 384.5 L 1195.5 388.5" stroke-opacity="1" stroke-miterlimit="10"/><text fill="rgb(0,0,0)" stroke="none" font-family="geogebra-sans-serif, sans-serif" font-size="12px" font-style="normal" font-weight="normal" text-decoration="normal" x="2" y="400" text-anchor="start" dominant-baseline="alphabetic" fill-opacity="1">–20</text><text fill="none" stroke="rgb(255,255,255)" font-family="geogebra-sans-serif, sans-serif" font-size="12px" font-style="normal" font-weight="normal" text-decoration="normal" x="2" y="400" text-anchor="start" dominant-baseline="alphabetic" stroke-opacity="1" stroke-linejoin="bevel" stroke-miterlimit="10" stroke-width="3">–20</text><text fill="rgb(0,0,0)" stroke="none" font-family="geogebra-sans-serif, sans-serif" font-size="12px" font-style="normal" font-weight="normal" text-decoration="normal" x="2" y="400" text-anchor="start" dominant-baseline="alphabetic" fill-opacity="1">–20</text><text fill="rgb(0,0,0)" stroke="none" font-family="geogebra-sans-serif, sans-serif" font-size="12px" font-style="normal" font-weight="normal" text-decoration="normal" x="86" y="400" text-anchor="start" dominant-baseline="alphabetic" fill-opacity="1">–10</text><text fill="none" stroke="rgb(255,255,255)" font-family="geogebra-sans-serif, sans-serif" font-size="12px" font-style="normal" font-weight="normal" text-decoration="normal" x="86" y="400" text-anchor="start" dominant-baseline="alphabetic" stroke-opacity="1" stroke-linejoin="bevel" stroke-miterlimit="10" stroke-width="3">–10</text><text fill="rgb(0,0,0)" stroke="none" font-family="geogebra-sans-serif, sans-serif" font-size="12px" font-style="normal" font-weight="normal" text-decoration="normal" x="86" y="400" text-anchor="start" dominant-baseline="alphabetic" fill-opacity="1">–10</text><text fill="rgb(0,0,0)" stroke="none" font-family="geogebra-sans-serif, sans-serif" font-size="12px" font-style="normal" font-weight="normal" text-decoration="normal" x="256" y="400" text-anchor="start" dominant-baseline="alphabetic" fill-opacity="1">10</text><text fill="none" stroke="rgb(255,255,255)" font-family="geogebra-sans-serif, sans-serif" font-size="12px" font-style="normal" font-weight="normal" text-decoration="normal" x="256" y="400" text-anchor="start" dominant-baseline="alphabetic" stroke-opacity="1" stroke-linejoin="bevel" stroke-miterlimit="10" stroke-width="3">10</text><text fill="rgb(0,0,0)" stroke="none" font-family="geogebra-sans-serif, sans-serif" font-size="12px" font-style="normal" font-weight="normal" text-decoration="normal" x="256" y="400" text-anchor="start" dominant-baseline="alphabetic" fill-opacity="1">10</text><text fill="rgb(0,0,0)" stroke="none" font-family="geogebra-sans-serif, sans-serif" font-size="12px" font-style="normal" font-weight="normal" text-decoration="normal" x="340" y="400" text-anchor="start" dominant-baseline="alphabetic" fill-opacity="1">20</text><text fill="none" stroke="rgb(255,255,255)" font-family="geogebra-sans-serif, sans-serif" font-size="12px" font-style="normal" font-weight="normal" text-decoration="normal" x="340" y="400" text-anchor="start" dominant-baseline="alphabetic" stroke-opacity="1" stroke-linejoin="bevel" stroke-miterlimit="10" stroke-width="3">20</text><text fill="rgb(0,0,0)" stroke="none" font-family="geogebra-sans-serif, sans-serif" font-size="12px" font-style="normal" font-weight="normal" text-decoration="normal" x="340" y="400" text-anchor="start" dominant-baseline="alphabetic" fill-opacity="1">20</text><text fill="rgb(0,0,0)" stroke="none" font-family="geogebra-sans-serif, sans-serif" font-size="12px" font-style="normal" font-weight="normal" text-decoration="normal" x="424" y="400" text-anchor="start" dominant-baseline="alphabetic" fill-opacity="1">30</text><text fill="none" stroke="rgb(255,255,255)" font-family="geogebra-sans-serif, sans-serif" font-size="12px" font-style="normal" font-weight="normal" text-decoration="normal" x="424" y="400" text-anchor="start" dominant-baseline="alphabetic" stroke-opacity="1" stroke-linejoin="bevel" stroke-miterlimit="10" stroke-width="3">30</text><text fill="rgb(0,0,0)" stroke="none" font-family="geogebra-sans-serif, sans-serif" font-size="12px" font-style="normal" font-weight="normal" text-decoration="normal" x="424" y="400" text-anchor="start" dominant-baseline="alphabetic" fill-opacity="1">30</text><text fill="rgb(0,0,0)" stroke="none" font-family="geogebra-sans-serif, sans-serif" font-size="12px" font-style="normal" font-weight="normal" text-decoration="normal" x="508" y="400" text-anchor="start" dominant-baseline="alphabetic" fill-opacity="1">40</text><text fill="none" stroke="rgb(255,255,255)" font-family="geogebra-sans-serif, sans-serif" font-size="12px" font-style="normal" font-weight="normal" text-decoration="normal" x="508" y="400" text-anchor="start" dominant-baseline="alphabetic" stroke-opacity="1" stroke-linejoin="bevel" stroke-miterlimit="10" stroke-width="3">40</text><text fill="rgb(0,0,0)" stroke="none" font-family="geogebra-sans-serif, sans-serif" font-size="12px" font-style="normal" font-weight="normal" text-decoration="normal" x="508" y="400" text-anchor="start" dominant-baseline="alphabetic" fill-opacity="1">40</text><text fill="rgb(0,0,0)" stroke="none" font-family="geogebra-sans-serif, sans-serif" font-size="12px" font-style="normal" font-weight="normal" text-decoration="normal" x="591" y="400" text-anchor="start" dominant-baseline="alphabetic" fill-opacity="1">50</text><text fill="none" stroke="rgb(255,255,255)" font-family="geogebra-sans-serif, sans-serif" font-size="12px" font-style="normal" font-weight="normal" text-decoration="normal" x="591" y="400" text-anchor="start" dominant-baseline="alphabetic" stroke-opacity="1" stroke-linejoin="bevel" stroke-miterlimit="10" stroke-width="3">50</text><text fill="rgb(0,0,0)" stroke="none" font-family="geogebra-sans-serif, sans-serif" font-size="12px" font-style="normal" font-weight="normal" text-decoration="normal" x="591" y="400" text-anchor="start" dominant-baseline="alphabetic" fill-opacity="1">50</text><text fill="rgb(0,0,0)" stroke="none" font-family="geogebra-sans-serif, sans-serif" font-size="12px" font-style="normal" font-weight="normal" text-decoration="normal" x="675" y="400" text-anchor="start" dominant-baseline="alphabetic" fill-opacity="1">60</text><text fill="none" stroke="rgb(255,255,255)" font-family="geogebra-sans-serif, sans-serif" font-size="12px" font-style="normal" font-weight="normal" text-decoration="normal" x="675" y="400" text-anchor="start" dominant-baseline="alphabetic" stroke-opacity="1" stroke-linejoin="bevel" stroke-miterlimit="10" stroke-width="3">60</text><text fill="rgb(0,0,0)" stroke="none" font-family="geogebra-sans-serif, sans-serif" font-size="12px" font-style="normal" font-weight="normal" text-decoration="normal" x="675" y="400" text-anchor="start" dominant-baseline="alphabetic" fill-opacity="1">60</text><text fill="rgb(0,0,0)" stroke="none" font-family="geogebra-sans-serif, sans-serif" font-size="12px" font-style="normal" font-weight="normal" text-decoration="normal" x="759" y="400" text-anchor="start" dominant-baseline="alphabetic" fill-opacity="1">70</text><text fill="none" stroke="rgb(255,255,255)" font-family="geogebra-sans-serif, sans-serif" font-size="12px" font-style="normal" font-weight="normal" text-decoration="normal" x="759" y="400" text-anchor="start" dominant-baseline="alphabetic" stroke-opacity="1" stroke-linejoin="bevel" stroke-miterlimit="10" stroke-width="3">70</text><text fill="rgb(0,0,0)" stroke="none" font-family="geogebra-sans-serif, sans-serif" font-size="12px" font-style="normal" font-weight="normal" text-decoration="normal" x="759" y="400" text-anchor="start" dominant-baseline="alphabetic" fill-opacity="1">70</text><text fill="rgb(0,0,0)" stroke="none" font-family="geogebra-sans-serif, sans-serif" font-size="12px" font-style="normal" font-weight="normal" text-decoration="normal" x="843" y="400" text-anchor="start" dominant-baseline="alphabetic" fill-opacity="1">80</text><text fill="none" stroke="rgb(255,255,255)" font-family="geogebra-sans-serif, sans-serif" font-size="12px" font-style="normal" font-weight="normal" text-decoration="normal" x="843" y="400" text-anchor="start" dominant-baseline="alphabetic" stroke-opacity="1" stroke-linejoin="bevel" stroke-miterlimit="10" stroke-width="3">80</text><text fill="rgb(0,0,0)" stroke="none" font-family="geogebra-sans-serif, sans-serif" font-size="12px" font-style="normal" font-weight="normal" text-decoration="normal" x="843" y="400" text-anchor="start" dominant-baseline="alphabetic" fill-opacity="1">80</text><text fill="rgb(0,0,0)" stroke="none" font-family="geogebra-sans-serif, sans-serif" font-size="12px" font-style="normal" font-weight="normal" text-decoration="normal" x="927" y="400" text-anchor="start" dominant-baseline="alphabetic" fill-opacity="1">90</text><text fill="none" stroke="rgb(255,255,255)" font-family="geogebra-sans-serif, sans-serif" font-size="12px" font-style="normal" font-weight="normal" text-decoration="normal" x="927" y="400" text-anchor="start" dominant-baseline="alphabetic" stroke-opacity="1" stroke-linejoin="bevel" stroke-miterlimit="10" stroke-width="3">90</text><text fill="rgb(0,0,0)" stroke="none" font-family="geogebra-sans-serif, sans-serif" font-size="12px" font-style="normal" font-weight="normal" text-decoration="normal" x="927" y="400" text-anchor="start" dominant-baseline="alphabetic" fill-opacity="1">90</text><text fill="rgb(0,0,0)" stroke="none" font-family="geogebra-sans-serif, sans-serif" font-size="12px" font-style="normal" font-weight="normal" text-decoration="normal" x="1007" y="400" text-anchor="start" dominant-baseline="alphabetic" fill-opacity="1">100</text><text fill="none" stroke="rgb(255,255,255)" font-family="geogebra-sans-serif, sans-serif" font-size="12px" font-style="normal" font-weight="normal" text-decoration="normal" x="1007" y="400" text-anchor="start" dominant-baseline="alphabetic" stroke-opacity="1" stroke-linejoin="bevel" stroke-miterlimit="10" stroke-width="3">100</text><text fill="rgb(0,0,0)" stroke="none" font-family="geogebra-sans-serif, sans-serif" font-size="12px" font-style="normal" font-weight="normal" text-decoration="normal" x="1007" y="400" text-anchor="start" dominant-baseline="alphabetic" fill-opacity="1">100</text><text fill="rgb(0,0,0)" stroke="none" font-family="geogebra-sans-serif, sans-serif" font-size="12px" font-style="normal" font-weight="normal" text-decoration="normal" x="1091" y="400" text-anchor="start" dominant-baseline="alphabetic" fill-opacity="1">110</text><text fill="none" stroke="rgb(255,255,255)" font-family="geogebra-sans-serif, sans-serif" font-size="12px" font-style="normal" font-weight="normal" text-decoration="normal" x="1091" y="400" text-anchor="start" dominant-baseline="alphabetic" stroke-opacity="1" stroke-linejoin="bevel" stroke-miterlimit="10" stroke-width="3">110</text><text fill="rgb(0,0,0)" stroke="none" font-family="geogebra-sans-serif, sans-serif" font-size="12px" font-style="normal" font-weight="normal" text-decoration="normal" x="1091" y="400" text-anchor="start" dominant-baseline="alphabetic" fill-opacity="1">110</text><text fill="rgb(0,0,0)" stroke="none" font-family="geogebra-sans-serif, sans-serif" font-size="12px" font-style="normal" font-weight="normal" text-decoration="normal" x="1175" y="400" text-anchor="start" dominant-baseline="alphabetic" fill-opacity="1">120</text><text fill="none" stroke="rgb(255,255,255)" font-family="geogebra-sans-serif, sans-serif" font-size="12px" font-style="normal" font-weight="normal" text-decoration="normal" x="1175" y="400" text-anchor="start" dominant-baseline="alphabetic" stroke-opacity="1" stroke-linejoin="bevel" stroke-miterlimit="10" stroke-width="3">120</text><text fill="rgb(0,0,0)" stroke="none" font-family="geogebra-sans-serif, sans-serif" font-size="12px" font-style="normal" font-weight="normal" text-decoration="normal" x="1175" y="400" text-anchor="start" dominant-baseline="alphabetic" fill-opacity="1">120</text><text fill="rgb(0,0,0)" stroke="none" font-family="geogebra-sans-serif, sans-serif" font-size="12px" font-style="normal" font-weight="normal" text-decoration="normal" x="146" y="891" text-anchor="start" dominant-baseline="alphabetic" fill-opacity="1">–60</text><text fill="none" stroke="rgb(255,255,255)" font-family="geogebra-sans-serif, sans-serif" font-size="12px" font-style="normal" font-weight="normal" text-decoration="normal" x="146" y="891" text-anchor="start" dominant-baseline="alphabetic" stroke-opacity="1" stroke-linejoin="bevel" stroke-miterlimit="10" stroke-width="3">–60</text><text fill="rgb(0,0,0)" stroke="none" font-family="geogebra-sans-serif, sans-serif" font-size="12px" font-style="normal" font-weight="normal" text-decoration="normal" x="146" y="891" text-anchor="start" dominant-baseline="alphabetic" fill-opacity="1">–60</text><text fill="rgb(0,0,0)" stroke="none" font-family="geogebra-sans-serif, sans-serif" font-size="12px" font-style="normal" font-weight="normal" text-decoration="normal" x="146" y="808" text-anchor="start" dominant-baseline="alphabetic" fill-opacity="1">–50</text><text fill="none" stroke="rgb(255,255,255)" font-family="geogebra-sans-serif, sans-serif" font-size="12px" font-style="normal" font-weight="normal" text-decoration="normal" x="146" y="808" text-anchor="start" dominant-baseline="alphabetic" stroke-opacity="1" stroke-linejoin="bevel" stroke-miterlimit="10" stroke-width="3">–50</text><text fill="rgb(0,0,0)" stroke="none" font-family="geogebra-sans-serif, sans-serif" font-size="12px" font-style="normal" font-weight="normal" text-decoration="normal" x="146" y="808" text-anchor="start" dominant-baseline="alphabetic" fill-opacity="1">–50</text><text fill="rgb(0,0,0)" stroke="none" font-family="geogebra-sans-serif, sans-serif" font-size="12px" font-style="normal" font-weight="normal" text-decoration="normal" x="146" y="724" text-anchor="start" dominant-baseline="alphabetic" fill-opacity="1">–40</text><text fill="none" stroke="rgb(255,255,255)" font-family="geogebra-sans-serif, sans-serif" font-size="12px" font-style="normal" font-weight="normal" text-decoration="normal" x="146" y="724" text-anchor="start" dominant-baseline="alphabetic" stroke-opacity="1" stroke-linejoin="bevel" stroke-miterlimit="10" stroke-width="3">–40</text><text fill="rgb(0,0,0)" stroke="none" font-family="geogebra-sans-serif, sans-serif" font-size="12px" font-style="normal" font-weight="normal" text-decoration="normal" x="146" y="724" text-anchor="start" dominant-baseline="alphabetic" fill-opacity="1">–40</text><text fill="rgb(0,0,0)" stroke="none" font-family="geogebra-sans-serif, sans-serif" font-size="12px" font-style="normal" font-weight="normal" text-decoration="normal" x="146" y="640" text-anchor="start" dominant-baseline="alphabetic" fill-opacity="1">–30</text><text fill="none" stroke="rgb(255,255,255)" font-family="geogebra-sans-serif, sans-serif" font-size="12px" font-style="normal" font-weight="normal" text-decoration="normal" x="146" y="640" text-anchor="start" dominant-baseline="alphabetic" stroke-opacity="1" stroke-linejoin="bevel" stroke-miterlimit="10" stroke-width="3">–30</text><text fill="rgb(0,0,0)" stroke="none" font-family="geogebra-sans-serif, sans-serif" font-size="12px" font-style="normal" font-weight="normal" text-decoration="normal" x="146" y="640" text-anchor="start" dominant-baseline="alphabetic" fill-opacity="1">–30</text><text fill="rgb(0,0,0)" stroke="none" font-family="geogebra-sans-serif, sans-serif" font-size="12px" font-style="normal" font-weight="normal" text-decoration="normal" x="146" y="556" text-anchor="start" dominant-baseline="alphabetic" fill-opacity="1">–20</text><text fill="none" stroke="rgb(255,255,255)" font-family="geogebra-sans-serif, sans-serif" font-size="12px" font-style="normal" font-weight="normal" text-decoration="normal" x="146" y="556" text-anchor="start" dominant-baseline="alphabetic" stroke-opacity="1" stroke-linejoin="bevel" stroke-miterlimit="10" stroke-width="3">–20</text><text fill="rgb(0,0,0)" stroke="none" font-family="geogebra-sans-serif, sans-serif" font-size="12px" font-style="normal" font-weight="normal" text-decoration="normal" x="146" y="556" text-anchor="start" dominant-baseline="alphabetic" fill-opacity="1">–20</text><text fill="rgb(0,0,0)" stroke="none" font-family="geogebra-sans-serif, sans-serif" font-size="12px" font-style="normal" font-weight="normal" text-decoration="normal" x="148" y="472" text-anchor="start" dominant-baseline="alphabetic" fill-opacity="1">–10</text><text fill="none" stroke="rgb(255,255,255)" font-family="geogebra-sans-serif, sans-serif" font-size="12px" font-style="normal" font-weight="normal" text-decoration="normal" x="148" y="472" text-anchor="start" dominant-baseline="alphabetic" stroke-opacity="1" stroke-linejoin="bevel" stroke-miterlimit="10" stroke-width="3">–10</text><text fill="rgb(0,0,0)" stroke="none" font-family="geogebra-sans-serif, sans-serif" font-size="12px" font-style="normal" font-weight="normal" text-decoration="normal" x="148" y="472" text-anchor="start" dominant-baseline="alphabetic" fill-opacity="1">–10</text><text fill="rgb(0,0,0)" stroke="none" font-family="geogebra-sans-serif, sans-serif" font-size="12px" font-style="normal" font-weight="normal" text-decoration="normal" x="158" y="305" text-anchor="start" dominant-baseline="alphabetic" fill-opacity="1">10</text><text fill="none" stroke="rgb(255,255,255)" font-family="geogebra-sans-serif, sans-serif" font-size="12px" font-style="normal" font-weight="normal" text-decoration="normal" x="158" y="305" text-anchor="start" dominant-baseline="alphabetic" stroke-opacity="1" stroke-linejoin="bevel" stroke-miterlimit="10" stroke-width="3">10</text><text fill="rgb(0,0,0)" stroke="none" font-family="geogebra-sans-serif, sans-serif" font-size="12px" font-style="normal" font-weight="normal" text-decoration="normal" x="158" y="305" text-anchor="start" dominant-baseline="alphabetic" fill-opacity="1">10</text><text fill="rgb(0,0,0)" stroke="none" font-family="geogebra-sans-serif, sans-serif" font-size="12px" font-style="normal" font-weight="normal" text-decoration="normal" x="156" y="221" text-anchor="start" dominant-baseline="alphabetic" fill-opacity="1">20</text><text fill="none" stroke="rgb(255,255,255)" font-family="geogebra-sans-serif, sans-serif" font-size="12px" font-style="normal" font-weight="normal" text-decoration="normal" x="156" y="221" text-anchor="start" dominant-baseline="alphabetic" stroke-opacity="1" stroke-linejoin="bevel" stroke-miterlimit="10" stroke-width="3">20</text><text fill="rgb(0,0,0)" stroke="none" font-family="geogebra-sans-serif, sans-serif" font-size="12px" font-style="normal" font-weight="normal" text-decoration="normal" x="156" y="221" text-anchor="start" dominant-baseline="alphabetic" fill-opacity="1">20</text><text fill="rgb(0,0,0)" stroke="none" font-family="geogebra-sans-serif, sans-serif" font-size="12px" font-style="normal" font-weight="normal" text-decoration="normal" x="156" y="137" text-anchor="start" dominant-baseline="alphabetic" fill-opacity="1">30</text><text fill="none" stroke="rgb(255,255,255)" font-family="geogebra-sans-serif, sans-serif" font-size="12px" font-style="normal" font-weight="normal" text-decoration="normal" x="156" y="137" text-anchor="start" dominant-baseline="alphabetic" stroke-opacity="1" stroke-linejoin="bevel" stroke-miterlimit="10" stroke-width="3">30</text><text fill="rgb(0,0,0)" stroke="none" font-family="geogebra-sans-serif, sans-serif" font-size="12px" font-style="normal" font-weight="normal" text-decoration="normal" x="156" y="137" text-anchor="start" dominant-baseline="alphabetic" fill-opacity="1">30</text><text fill="rgb(0,0,0)" stroke="none" font-family="geogebra-sans-serif, sans-serif" font-size="12px" font-style="normal" font-weight="normal" text-decoration="normal" x="156" y="53" text-anchor="start" dominant-baseline="alphabetic" fill-opacity="1">40</text><text fill="none" stroke="rgb(255,255,255)" font-family="geogebra-sans-serif, sans-serif" font-size="12px" font-style="normal" font-weight="normal" text-decoration="normal" x="156" y="53" text-anchor="start" dominant-baseline="alphabetic" stroke-opacity="1" stroke-linejoin="bevel" stroke-miterlimit="10" stroke-width="3">40</text><text fill="rgb(0,0,0)" stroke="none" font-family="geogebra-sans-serif, sans-serif" font-size="12px" font-style="normal" font-weight="normal" text-decoration="normal" x="156" y="53" text-anchor="start" dominant-baseline="alphabetic" fill-opacity="1">40</text><text fill="rgb(0,0,0)" stroke="none" font-family="geogebra-sans-serif, sans-serif" font-size="12px" font-style="normal" font-weight="normal" text-decoration="normal" x="163" y="400" text-anchor="start" dominant-baseline="alphabetic" fill-opacity="1">0</text><text fill="none" stroke="rgb(255,255,255)" font-family="geogebra-sans-serif, sans-serif" font-size="12px" font-style="normal" font-weight="normal" text-decoration="normal" x="163" y="400" text-anchor="start" dominant-baseline="alphabetic" stroke-opacity="1" stroke-linejoin="bevel" stroke-miterlimit="10" stroke-width="3">0</text><text fill="rgb(0,0,0)" stroke="none" font-family="geogebra-sans-serif, sans-serif" font-size="12px" font-style="normal" font-weight="normal" text-decoration="normal" x="163" y="400" text-anchor="start" dominant-baseline="alphabetic" fill-opacity="1">0</text><path fill="none" stroke="rgb(46,125,50)" paint-order="fill stroke markers" d=" M 92.57812499999999 914.5295797231759 L 93.1640625 905.9878048456943 L 93.74999999999999 897.5911756082849 L 94.3359375 889.3362572385931 L 94.921875 881.2197224914655 L 95.50781249999999 873.2383474738865 L 96.09375 865.3890076629461 L 96.67968749999999 857.6686741065116 L 97.265625 850.0744097968873 L 97.8515625 842.6033662083539 L 98.4375 835.252779990002 L 99.0234375 828.0199698057983 L 99.60937499999999 820.9023333142982 L 100.1953125 813.8973442808481 L 100.78124999999999 807.0025498155526 L 101.3671875 800.215567730661 L 101.953125 793.5340840113937 L 102.53906249999999 786.9558503945648 L 103.125 780.4786820496796 L 103.71093749999999 774.1004553574859 L 104.296875 767.8191057812295 L 104.88281249999999 761.6326258261339 L 105.46875 755.5390630828688 L 106.0546875 749.5365183509991 L 106.64062499999999 743.623143838628 L 107.2265625 737.7971414346475 L 107.81249999999999 732.0567610502035 L 108.3984375 726.4002990261629 L 108.984375 720.8260966035381 L 109.5703125 715.3325384539819 L 110.15625 709.9180512676227 L 110.74218749999999 704.5811023956419 L 111.328125 699.3201985451385 L 111.91406249999999 694.1338845239419 L 112.5 689.0207420331585 L 113.0859375 683.9793885053482 L 113.67187499999999 679.0084759863328 L 114.84375 669.272748805419 L 116.01562499999999 659.8034292010827 L 117.1875 650.5908748070335 L 118.359375 641.6259030381159 L 119.53125 632.8997640082199 L 120.703125 624.4041153401378 L 121.875 616.1309987149389 L 123.04687499999999 608.0728180223148 L 124.21875 600.2223189858141 L 125.390625 592.5725701481091 L 126.5625 585.1169451115454 L 127.734375 577.849105938347 L 128.90625 570.7629876230824 L 130.078125 563.8527835574491 L 131.25 557.1129319141671 L 132.421875 550.5381028828867 L 133.59375 544.1231866965527 L 134.76562499999997 537.8632823916957 L 135.9375 531.7536872507019 L 137.109375 525.7898868782636 L 138.28125 519.9675458680124 L 139.453125 514.2824990187827 L 140.625 508.7307430631164 L 141.796875 503.3084288734866 L 142.96875 498.01185411436506 L 144.140625 492.83745631065347 L 145.3125 487.7818063052141 L 147.65625 478.01366291916736 L 150 468.68243061050487 L 152.34375 459.7648872517702 L 154.6875 451.2394277627335 L 157.03124999999997 443.08592576711203 L 159.375 435.28560921318325 L 161.71875 427.8209483411181 L 164.0625 420.67555459041733 L 166.40625 413.8340892210494 L 168.75 407.2821805765292 L 171.09374999999997 401.0063490502275 L 173.4375 394.99393893095237 L 175.78125 389.23305640304926 L 178.125 383.7125130622383 L 180.46875 378.4217743830685 L 182.8125 373.350912638858 L 187.49999999999997 363.8318882394499 L 192.1875 355.08660503554734 L 196.875 347.05352743816604 L 201.56249999999997 339.6774765707422 L 206.25 332.9088301118677 L 210.9375 326.7028400346299 L 215.625 321.0190484620265 L 220.3125 315.82078556200196 L 225 311.0747363472527 L 229.6875 306.7505655945676 L 234.375 302.82059198558215 L 239.0625 299.2595040944221 L 243.75 296.0441120839686 L 248.4375 293.15312998036967 L 253.125 290.5669842208765 L 257.8125 288.2676448490724 L 262.5 286.2384762923994 L 267.1875 284.46410512198617 L 271.875 282.930302581961 L 276.5625 281.62387999893565 L 281.25 280.5325954535958 L 285.9375 279.64507032454554 L 290.625 278.9507145071801 L 295.3125 278.43965927346835 L 300 278.10269687705073 L 304.6875 277.93122612605043 L 309.375 277.917203246787 L 314.0625 278.05309744790316 L 318.75 278.3318506685539 L 323.4375 278.74684105812594 L 328.125 279.29184979004503 L 332.8125 279.96103085987954 L 337.5 280.74888355927015 L 342.1875 281.65022735312664 L 346.875 282.6601789188043 L 351.5625 283.77413113326963 L 356.25 284.9877338181305 L 360.9375 286.29687607332505 L 365.625 287.6976700486223 L 370.3125 289.1864360182392 L 375 290.75968863810897 L 379.6875 292.41412427789663 L 384.375 294.14660933096525 L 389.0625 295.9541694153319 L 393.75 297.83397938738017 L 398.4375 299.7833540978482 L 403.125 301.7997398265119 L 407.8125 303.8807063381312 L 412.5 306.02393950771483 L 417.1875 308.2272344680666 L 421.875 310.48848923696 L 426.5625 312.80569878523 L 431.25 315.1769495105966 L 435.9375 317.6004140852083 L 440.625 320.0743466477478 L 445.3125 322.5970783135151 L 450 325.16701297821953 L 454.6875 327.78262339330735 L 459.375 330.44244749254557 L 464.06249999999994 333.1450849512911 L 468.75 335.8891939614319 L 473.4375 338.6734882063906 L 478.125 341.4967340218591 L 482.8125 344.3577477290948 L 487.5 347.2553931286665 L 492.1875 350.1885791434974 L 496.875 353.1562576009322 L 501.5625 356.15742114435466 L 506.25 359.1911012656115 L 510.9375 362.25636645016874 L 515.625 365.3523204275349 L 520.3125 368.47810052004775 L 525 371.63287608363214 L 529.6875 374.81584703460703 L 534.375 378.0262424570526 L 539.0625 381.26331928564406 L 543.75 384.52636105922426 L 548.4375 387.81467674072013 L 553.125 391.12759959932293 L 557.8125 394.4644861511297 L 562.5 397.8247151547103 L 567.1875 401.20768665830946 L 571.875 404.6128210956067 L 576.5625 408.03955842717875 L 581.25 411.4873573249868 L 585.9375 414.95569439739523 L 590.625 418.4440634523935 L 595.3125 421.95197479683696 L 600 425.4789545696745 L 604.6875 429.0245441072507 L 609.375 432.58829933889945 L 614.0625 436.1697902111554 L 618.75 439.7686001390126 L 623.4375 443.3843254827635 L 628.125 447.0165750490336 L 632.8125 450.66496961471944 L 637.5 454.32914147261124 L 642.1875 458.00873399755574 L 646.875 461.70340123208706 L 651.5625 465.41280749050986 L 656.25 469.13662698048665 L 660.9375 472.87454344123125 L 665.625 476.6262497974643 L 670.3125 480.3914478283371 L 675 484.1698478505711 L 679.6875 487.96116841510906 L 684.375 491.7651360166076 L 689.0625 495.5814848151438 L 693.75 499.4099563695388 L 698.4375 503.2502993817383 L 703.125 507.1022694517177 L 707.8125 510.9656288424098 L 712.5 514.8401462541813 L 717.1874999999999 518.7255966084062 L 721.875 522.6217608397152 L 726.5625 526.528425696511 L 731.2499999999999 530.4453835493773 L 735.9375000000001 534.3724322070112 L 740.625 538.3093747393411 L 745.3125 542.2560193075058 L 749.9999999999999 546.2121790003811 L 754.6875 550.1776716773683 L 759.375 554.1523198171603 L 764.0624999999999 558.1359503722279 L 768.7500000000001 562.1283946287692 L 773.4375 566.1294880718888 L 778.1249999999999 570.1390702557793 L 782.8125000000001 574.1569846786898 L 787.5 578.1830786624738 L 792.1875 582.2172032365286 L 796.8749999999999 586.2592130259341 L 801.5625000000001 590.3089661436173 L 806.25 594.3663240863757 L 810.9374999999999 598.4311516345975 L 815.6250000000001 602.5033167555271 L 820.3125 606.5826905099293 L 825 610.6691469620175 L 829.6874999999999 614.762563092507 L 834.3750000000001 618.8628187146746 L 839.0625 622.969796393298 L 843.7499999999999 627.0833813663658 L 848.4375000000001 631.2034614694434 L 853.125 635.3299270625924 L 857.8125 639.4626709597454 L 862.4999999999999 643.6015883604368 L 867.1875000000001 647.7465767838006 L 871.875 651.8975360047468 L 876.5624999999999 656.0543679922364 L 881.2500000000001 660.2169768495677 L 885.9375 664.3852687566059 L 890.625 668.5591519138779 L 895.3124999999999 672.7385364884626 L 900 676.9233345616123 L 904.6875 681.113460078037 L 909.3749999999999 685.3088287967958 L 914.0625000000001 689.5093582437312 L 918.75 693.7149676653908 L 923.4375 697.9255779843875 L 928.1249999999999 702.1411117561375 L 932.8125 706.3614931269358 L 937.5 710.5866477933126 L 942.1874999999999 714.8165029626336 L 946.8750000000001 719.0509873148933 L 951.5625 723.2900309656611 L 956.25 727.533565430144 L 960.9375000000001 731.7815235883202 L 965.625 736.0338396511106 L 970.3125 740.290449127554 L 974.9999999999999 744.5512887929442 L 979.6875000000001 748.8162966579064 L 984.375 753.0854119383707 L 989.0624999999999 757.3585750264206 L 993.7500000000001 761.6357274619821 L 998.4375 765.9168119053257 L 1003.125 770.2017721103573 L 1007.8124999999999 774.4905528986677 L 1012.5000000000001 778.7831001343194 L 1017.1875 783.0793606993411 L 1021.8749999999999 787.3792824699149 L 1026.5625 791.6828142932256 L 1031.25 795.9899059649538 L 1035.9375 800.3005082073946 L 1040.625 804.6145726481772 L 1045.3125 808.9320517995686 L 1050 813.2528990383428 L 1054.6875 817.5770685861978 L 1059.375 821.9045154907009 L 1064.0625 826.2351956067489 L 1068.75 830.569065578525 L 1073.4375 834.9060828219372 L 1078.1249999999998 839.2462055075234 L 1082.8125 843.5893925438102 L 1087.5 847.9356035611073 L 1092.1875 852.284798895731 L 1096.875 856.6369395746365 L 1101.5625 860.9919873004501 L 1106.25 865.3499044368921 L 1110.9375 869.7106539945718 L 1115.625 874.074199617148 L 1120.3125 878.4405055678454 L 1125 882.8095367163119 L 1129.6875 887.1812585258101 L 1134.375 891.5556370407312 L 1139.0625 895.9326388744239 L 1143.75 900.3122311973276 L 1148.4375 904.6943817254001 L 1153.125 909.0790587088347" stroke-opacity="0.6980392156862745" stroke-linecap="round" stroke-linejoin="round" stroke-miterlimit="10" stroke-width="2.5"/><text fill="rgb(46,125,50)" stroke="none" font-family="geogebra-sans-serif, sans-serif" font-size="16px" font-style="normal" font-weight="normal" text-decoration="normal" x="103" y="896" text-anchor="start" dominant-baseline="alphabetic" fill-opacity="1">f</text><text fill="none" stroke="rgb(255,255,255)" font-family="geogebra-sans-serif, sans-serif" font-size="16px" font-style="normal" font-weight="normal" text-decoration="normal" x="103" y="896" text-anchor="start" dominant-baseline="alphabetic" stroke-opacity="1" stroke-linejoin="bevel" stroke-miterlimit="10" stroke-width="3">f</text><text fill="rgb(46,125,50)" stroke="none" font-family="geogebra-sans-serif, sans-serif" font-size="16px" font-style="normal" font-weight="normal" text-decoration="normal" x="103" y="896" text-anchor="start" dominant-baseline="alphabetic" fill-opacity="1">f</text><path fill="rgb(97,97,97)" stroke="none" paint-order="stroke fill markers" d=" M 311.45059609246493 277.90440313696 C 311.45059609246493 280.1135421362832 309.6597350917881 281.90440313696 307.45059609246493 281.90440313696 C 305.2414570931418 281.90440313696 303.45059609246493 280.1135421362832 303.45059609246493 277.90440313696 C 303.45059609246493 275.69526413763685 305.2414570931418 273.90440313696 307.45059609246493 273.90440313696 C 309.6597350917881 273.90440313696 311.45059609246493 275.69526413763685 311.45059609246493 277.90440313696 Z" fill-opacity="1"/><path fill="none" stroke="rgb(0,0,0)" paint-order="fill stroke markers" d=" M 311.45059609246493 277.90440313696 C 311.45059609246493 280.1135421362832 309.6597350917881 281.90440313696 307.45059609246493 281.90440313696 C 305.2414570931418 281.90440313696 303.45059609246493 280.1135421362832 303.45059609246493 277.90440313696 C 303.45059609246493 275.69526413763685 305.2414570931418 273.90440313696 307.45059609246493 273.90440313696 C 309.6597350917881 273.90440313696 311.45059609246493 275.69526413763685 311.45059609246493 277.90440313696 Z" stroke-opacity="1" stroke-linecap="round" stroke-linejoin="round" stroke-miterlimit="10"/><text fill="rgb(97,97,97)" stroke="none" font-family="geogebra-sans-serif, sans-serif" font-size="16px" font-style="normal" font-weight="normal" text-decoration="normal" x="311" y="270" text-anchor="start" dominant-baseline="alphabetic" fill-opacity="1">C</text><text fill="none" stroke="rgb(255,255,255)" font-family="geogebra-sans-serif, sans-serif" font-size="16px" font-style="normal" font-weight="normal" text-decoration="normal" x="311" y="270" text-anchor="start" dominant-baseline="alphabetic" stroke-opacity="1" stroke-linejoin="bevel" stroke-miterlimit="10" stroke-width="3">C</text><text fill="rgb(97,97,97)" stroke="none" font-family="geogebra-sans-serif, sans-serif" font-size="16px" font-style="normal" font-weight="normal" text-decoration="normal" x="311" y="270" text-anchor="start" dominant-baseline="alphabetic" fill-opacity="1">C</text></g></g></svg>